<svg width="278" height="125" viewBox="0 0 278 125" fill="none" xmlns="http://www.w3.org/2000/svg">
<mask id="mask0_3610_505" style="mask-type:alpha" maskUnits="userSpaceOnUse" x="0" y="0" width="260" height="119">
<rect width="260" height="119" rx="10" fill="white"/>
</mask>
<g mask="url(#mask0_3610_505)">
<g opacity="0.2">
<path d="M233.781 49.4629H229.805C228.751 49.4629 227.74 49.8818 226.994 50.6273C226.249 51.3729 225.83 52.3841 225.83 53.4385C225.83 54.4929 226.249 55.5042 226.994 56.2497C227.74 56.9953 228.751 57.4142 229.805 57.4142H233.781C234.836 57.4142 235.847 56.9953 236.592 56.2497C237.338 55.5042 237.757 54.4929 237.757 53.4385C237.757 52.3841 237.338 51.3729 236.592 50.6273C235.847 49.8818 234.836 49.4629 233.781 49.4629Z" fill="#00C19D"/>
<path d="M253.659 49.4629H249.683C248.629 49.4629 247.617 49.8818 246.872 50.6273C246.126 51.3729 245.707 52.3841 245.707 53.4385C245.707 54.4929 246.126 55.5042 246.872 56.2497C247.617 56.9953 248.629 57.4142 249.683 57.4142H253.659C254.713 57.4142 255.724 56.9953 256.47 56.2497C257.215 55.5042 257.634 54.4929 257.634 53.4385C257.634 52.3841 257.215 51.3729 256.47 50.6273C255.724 49.8818 254.713 49.4629 253.659 49.4629Z" fill="#00C19D"/>
<path d="M233.781 65.3654H229.805C228.751 65.3654 227.74 65.7842 226.994 66.5298C226.249 67.2754 225.83 68.2866 225.83 69.341C225.83 70.3954 226.249 71.4066 226.994 72.1522C227.74 72.8978 228.751 73.3166 229.805 73.3166H233.781C234.836 73.3166 235.847 72.8978 236.592 72.1522C237.338 71.4066 237.757 70.3954 237.757 69.341C237.757 68.2866 237.338 67.2754 236.592 66.5298C235.847 65.7842 234.836 65.3654 233.781 65.3654Z" fill="#00C19D"/>
<path d="M253.659 65.3654H249.683C248.629 65.3654 247.617 65.7842 246.872 66.5298C246.126 67.2754 245.707 68.2866 245.707 69.341C245.707 70.3954 246.126 71.4066 246.872 72.1522C247.617 72.8978 248.629 73.3166 249.683 73.3166H253.659C254.713 73.3166 255.724 72.8978 256.47 72.1522C257.215 71.4066 257.634 70.3954 257.634 69.341C257.634 68.2866 257.215 67.2754 256.47 66.5298C255.724 65.7842 254.713 65.3654 253.659 65.3654Z" fill="#00C19D"/>
<path d="M281.488 117.049H273.537V24.973C273.545 23.061 273.092 21.1753 272.218 19.4748C271.344 17.7743 270.074 16.3088 268.515 15.2019C266.956 14.095 265.154 13.3792 263.26 13.1147C261.367 12.8502 259.437 13.0448 257.635 13.6821L217.878 27.9149C215.552 28.7374 213.538 30.2612 212.114 32.2763C210.69 34.2913 209.926 36.6985 209.927 39.166V117.049H201.976C200.921 117.049 199.91 117.468 199.164 118.213C198.419 118.959 198 119.97 198 121.024C198 122.079 198.419 123.09 199.164 123.836C199.91 124.581 200.921 125 201.976 125H281.488C282.543 125 283.554 124.581 284.3 123.836C285.045 123.09 285.464 122.079 285.464 121.024C285.464 119.97 285.045 118.959 284.3 118.213C283.554 117.468 282.543 117.049 281.488 117.049ZM233.781 117.049L233.582 93.1949H249.683V117.049H233.781ZM257.635 117.049V93.1949C258.689 93.1949 259.7 92.776 260.446 92.0305C261.191 91.2849 261.61 90.2737 261.61 89.2193C261.61 88.1649 261.191 87.1536 260.446 86.4081C259.7 85.6625 258.689 85.2436 257.635 85.2436H225.829C224.775 85.2436 223.764 85.6625 223.018 86.4081C222.273 87.1536 221.854 88.1649 221.854 89.2193C221.854 90.2737 222.273 91.2849 223.018 92.0305C223.764 92.776 224.775 93.1949 225.829 93.1949V117.049H217.878V39.166C217.879 38.3489 218.131 37.5518 218.6 36.8832C219.07 36.2145 219.734 35.7067 220.502 35.4289L260.258 21.2359C260.861 21.014 261.509 20.9415 262.146 21.0245C262.783 21.1076 263.39 21.3438 263.916 21.7129C264.435 22.0827 264.858 22.5718 265.149 23.1392C265.439 23.7066 265.589 24.3355 265.586 24.973V117.049H257.635Z" fill="#00C19D"/>
</g>
</g>
</svg>
