<svg width="278" height="136" viewBox="0 0 278 136" fill="none" xmlns="http://www.w3.org/2000/svg">
<mask id="mask0_3610_560" style="mask-type:alpha" maskUnits="userSpaceOnUse" x="0" y="0" width="260" height="119">
<rect width="260" height="119" rx="10" fill="white"/>
</mask>
<g mask="url(#mask0_3610_560)">
<path opacity="0.2" d="M280.015 64.3022C281.492 58.767 280.713 52.8719 277.849 47.9106C274.984 42.9492 270.268 39.3268 264.736 37.8384C259.902 36.5387 254.767 36.9548 250.206 39.0158C245.644 41.0769 241.938 44.6554 239.719 49.142L225.272 45.2709C225.592 40.2853 224.178 35.3423 221.269 31.2807C218.36 27.2191 214.136 24.289 209.312 22.9876C204.13 21.5973 198.616 22.1847 193.843 24.6354C189.07 27.0861 185.38 31.2249 183.49 36.2464C181.6 41.2679 181.646 46.8128 183.619 51.8023C185.592 56.7917 189.351 60.8687 194.164 63.2399L190.281 77.73C186.376 77.4719 182.474 78.2792 178.992 80.0657C175.51 81.8522 172.579 84.5508 170.511 87.8733C168.443 91.1958 167.317 95.0175 167.252 98.9304C167.186 102.843 168.185 106.7 170.141 110.09C172.097 113.48 174.937 116.274 178.358 118.176C181.778 120.077 185.651 121.014 189.562 120.887C193.474 120.759 197.277 119.571 200.566 117.45C203.855 115.33 206.506 112.356 208.237 108.846L222.727 112.728C222.471 116.633 223.281 120.533 225.069 124.014C226.857 127.494 229.556 130.424 232.879 132.49C236.202 134.557 240.023 135.682 243.936 135.746C247.848 135.81 251.704 134.81 255.093 132.854C258.482 130.898 261.275 128.058 263.176 124.638C265.077 121.217 266.013 117.345 265.885 113.435C265.757 109.524 264.57 105.721 262.449 102.433C260.329 99.144 257.356 96.4929 253.846 94.7622L257.729 80.2721C262.716 80.593 267.661 79.1777 271.724 76.2666C275.786 73.3555 278.716 69.1281 280.015 64.3022ZM262.411 46.4733C264.83 47.1217 267.003 48.4729 268.655 50.3562C270.307 52.2395 271.363 54.5702 271.69 57.0537C272.017 59.5372 271.6 62.0618 270.492 64.3084C269.384 66.5549 267.635 68.4225 265.465 69.6749C263.296 70.9274 260.804 71.5084 258.304 71.3446C255.805 71.1807 253.41 70.2794 251.423 68.7545C249.435 67.2296 247.945 65.1497 247.14 62.7777C246.335 60.4057 246.251 57.8483 246.899 55.4288C247.772 52.184 249.897 49.4184 252.807 47.7397C255.718 46.0611 259.176 45.6066 262.421 46.4762L262.411 46.4733ZM191.475 40.578C192.347 37.3351 194.47 34.5708 197.379 32.8918C200.287 31.2128 203.742 30.7563 206.987 31.6226C209.406 32.2709 211.579 33.6221 213.231 35.5054C214.883 37.3887 215.939 39.7195 216.266 42.2029C216.593 44.6864 216.176 47.211 215.068 49.4576C213.96 51.7042 212.211 53.5717 210.042 54.8242C207.872 56.0766 205.38 56.6577 202.881 56.4938C200.381 56.33 197.986 55.4286 195.999 53.9037C194.012 52.3788 192.521 50.2989 191.716 47.9269C190.911 45.555 190.827 42.9975 191.475 40.578ZM185.578 111.523C182.332 110.653 179.564 108.53 177.884 105.619C176.204 102.709 175.748 99.2507 176.618 96.0047C177.488 92.7588 179.611 89.9913 182.522 88.3111C185.432 86.6309 188.89 86.1756 192.136 87.0454C193.744 87.476 195.25 88.219 196.57 89.232C197.891 90.2449 198.998 91.508 199.83 92.949C200.662 94.39 201.202 95.9807 201.419 97.6304C201.637 99.2801 201.527 100.956 201.096 102.564C200.665 104.171 199.922 105.677 198.909 106.998C197.896 108.318 196.633 109.425 195.192 110.257C193.751 111.089 192.161 111.629 190.511 111.846C188.861 112.064 187.185 111.954 185.578 111.523ZM225.15 104.119L210.444 100.179C210.606 96.0886 209.607 92.036 207.56 88.4909C205.513 84.9459 202.503 82.0536 198.879 80.1496L202.82 65.4436C206.91 65.6065 210.963 64.6067 214.508 62.56C218.053 60.5132 220.945 57.5035 222.849 53.8798L237.556 57.8203C237.393 61.9106 238.393 65.9632 240.439 69.5083C242.486 73.0533 245.496 75.9456 249.12 77.8496L245.179 92.5556C241.089 92.3927 237.036 93.3925 233.491 95.4392C229.946 97.486 227.054 100.496 225.15 104.119ZM256.524 117.421C255.874 119.839 254.521 122.01 252.638 123.66C250.754 125.31 248.423 126.364 245.941 126.69C243.458 127.015 240.934 126.598 238.689 125.49C236.443 124.382 234.577 122.633 233.325 120.465C232.073 118.296 231.492 115.805 231.655 113.307C231.818 110.808 232.718 108.414 234.242 106.427C235.765 104.44 237.843 102.949 240.214 102.142C242.585 101.336 245.141 101.25 247.56 101.896C250.808 102.766 253.576 104.891 255.257 107.802C256.938 110.714 257.394 114.174 256.524 117.421Z" fill="#FFAB50"/>
</g>
</svg>
