<svg width="277" height="141" viewBox="0 0 277 141" fill="none" xmlns="http://www.w3.org/2000/svg">
<mask id="mask0_3610_559" style="mask-type:alpha" maskUnits="userSpaceOnUse" x="0" y="0" width="260" height="119">
<rect width="260" height="119" rx="10" fill="white"/>
</mask>
<g mask="url(#mask0_3610_559)">
<g opacity="0.2">
<path d="M200.479 94.8809C200.357 95.076 200.071 95.4235 200.058 95.6551C200.083 95.1956 200.217 95.2246 200.144 95.5129C200.11 95.6463 200.074 95.7961 200.031 95.9296C199.869 96.4344 200.047 95.8478 200.034 95.7282C200.047 95.8515 200.006 96.024 200.001 96.155C199.996 96.2947 199.996 96.4357 200.001 96.5755C200.005 96.6447 200.008 96.7127 200.012 96.7819C200.04 97.0589 200.037 97.0564 200.005 96.7731C199.996 96.7014 199.987 96.6308 199.978 96.5591C199.996 96.6611 200.019 96.763 200.044 96.8625C200.076 96.9972 200.114 97.1307 200.157 97.2629C200.204 97.4051 200.418 97.7413 200.185 97.3762C199.938 96.9897 200.195 97.3674 200.254 97.4769C200.338 97.633 200.43 97.7841 200.526 97.9326C200.598 98.0434 200.861 98.3531 200.546 97.9893C200.201 97.5915 200.571 98.0069 200.652 98.0913C200.808 98.2587 201.042 98.4098 201.178 98.5886C201.137 98.5332 200.546 98.1668 200.973 98.4211C201.076 98.4828 201.173 98.5533 201.278 98.6137C201.381 98.6754 201.488 98.7283 201.594 98.7875C201.881 98.9461 201.813 98.7258 201.335 98.6918C201.576 98.7094 201.872 98.8769 202.113 98.9335C202.855 99.1073 201.415 98.9046 202.181 98.9562C202.384 98.97 202.587 98.9713 202.79 98.9751C203.194 98.9814 203.598 98.9864 204.002 98.9914C207.881 99.0342 211.76 99.0204 215.639 99.0028C217.444 98.994 219.251 98.9826 221.056 98.9688C222.703 98.9562 224.279 100.425 224.204 102.116C224.127 103.832 222.821 105.25 221.056 105.264C217.124 105.294 213.194 105.314 209.262 105.312C207.265 105.31 205.268 105.304 203.273 105.276C202.056 105.26 200.814 105.199 199.665 104.761C198.257 104.226 196.939 103.436 195.963 102.266C193.469 99.2735 192.943 95.081 195.047 91.7019C195.917 90.3057 197.897 89.6334 199.353 90.5726C200.75 91.4778 201.41 93.3852 200.479 94.8809Z" fill="#EC4A85"/>
<path d="M209.624 93.8662C207.762 93.8662 205.901 93.8662 204.039 93.8662C203.626 93.8662 203.213 93.8662 202.8 93.8662C202.712 93.8662 202.624 93.8649 202.536 93.8662C202.523 93.8662 202.512 93.8662 202.5 93.8662C202.375 93.8674 202.25 93.8787 202.126 93.8787C201.565 93.88 202.692 93.7566 202.319 93.8473C202.11 93.8976 201.9 93.9354 201.695 93.9983C201.608 94.0248 201.523 94.06 201.434 94.0852C201.05 94.1947 202.032 93.7881 201.681 93.9769C201.494 94.0777 201.302 94.1683 201.121 94.2804C201.03 94.337 200.911 94.4465 200.818 94.4818C200.928 94.4402 201.335 94.0386 201.024 94.3282C200.843 94.4969 200.673 94.6669 200.502 94.8456C200.434 94.9161 200.231 95.183 200.513 94.8142C200.94 94.2577 200.217 95.212 200.291 95.1138C199.486 96.1575 198.052 96.5931 196.777 96.2419C196.059 96.0442 195.365 95.5469 194.725 95.1805C193.75 94.6228 192.774 94.0651 191.799 93.5061C190.334 92.6676 188.803 91.8933 187.385 90.9743C186.504 90.4027 185.862 89.7115 185.161 88.9624C184.37 88.1202 183.58 87.2766 182.789 86.4344C181.516 85.0785 180.261 83.7037 178.941 82.3931C178.624 82.077 178.302 81.7648 177.968 81.4664C177.786 81.3028 177.57 81.1567 177.398 80.983C177.384 80.9691 177.947 81.3796 177.667 81.1945C177.539 81.1102 177.418 81.0157 177.29 80.9314C177.11 80.813 176.925 80.7022 176.736 80.599C176.654 80.5549 176.571 80.5134 176.489 80.4693C176.037 80.22 176.656 80.5549 176.726 80.5537C176.538 80.5562 176.272 80.3862 176.084 80.3296C175.861 80.2641 175.327 80.244 175.144 80.1181C175.176 80.1407 175.76 80.1596 175.416 80.1647C175.266 80.1672 175.115 80.1458 174.964 80.1433C174.735 80.1395 174.507 80.1571 174.278 80.1621C173.714 80.1735 175.002 80.0161 174.339 80.1596C174.128 80.2049 173.924 80.2969 173.715 80.3384C173.352 80.4114 174.334 79.9947 174.03 80.2062C173.968 80.249 173.885 80.278 173.82 80.3145C173.652 80.4076 173.452 80.6003 173.275 80.662C173.257 80.6682 173.816 80.2112 173.578 80.429C173.493 80.5084 173.399 80.5814 173.313 80.6594C173.126 80.8269 172.947 81.0031 172.774 81.1832C172.681 81.2789 172.596 81.3871 172.499 81.4778C172.263 81.6968 172.669 81.2663 172.675 81.2361C172.644 81.3909 172.41 81.6855 172.323 81.8328C172.117 82.1815 172.508 81.2298 172.417 81.6226C172.396 81.7157 172.357 81.8076 172.333 81.9008C172.329 81.9159 172.283 82.247 172.25 82.2772C172.367 82.1639 172.312 81.4992 172.298 82.1098C172.295 82.2092 172.302 82.3087 172.3 82.4082C172.295 82.9898 172.318 82.1929 172.256 82.174C172.299 82.1878 172.415 82.7632 172.441 82.8601C172.547 83.2529 172.14 82.3339 172.371 82.6725C172.426 82.7544 172.477 82.8564 172.523 82.9445C172.815 83.4947 172.142 82.524 172.542 82.9848C172.766 83.2416 172.983 83.506 173.203 83.7653C176.018 87.0903 178.834 90.4165 181.65 93.7415C182.455 94.6933 183.236 95.6753 184.072 96.6019C184.954 97.5801 186.001 98.4425 186.956 99.3452C188.666 100.959 190.374 102.573 192.084 104.189C192.586 104.662 193.087 105.137 193.59 105.61C193.792 105.801 193.996 105.993 194.205 106.179C194.384 106.338 194.565 106.494 194.75 106.646C194.855 106.733 194.963 106.816 195.068 106.904C195.333 107.124 194.83 106.723 194.835 106.724C195.299 106.987 195.72 107.364 196.173 107.652C197.03 108.197 197.926 108.664 198.85 109.085C199.361 109.318 198.206 108.832 198.938 109.117C199.157 109.203 199.378 109.286 199.601 109.364C200.11 109.543 200.626 109.702 201.147 109.84C201.604 109.961 202.065 110.067 202.53 110.155C202.763 110.199 202.996 110.239 203.23 110.276C203.33 110.291 203.431 110.302 203.532 110.321C202.672 110.164 203.194 110.273 203.402 110.295C204.321 110.392 205.244 110.422 206.167 110.397C207.422 110.363 208.677 110.319 209.933 110.278C214.028 110.15 218.123 110.021 222.22 109.893C223.485 109.854 224.778 109.975 225.995 110.337C227.711 110.85 229.122 111.744 230.493 112.865C232.13 114.205 233.766 115.545 235.404 116.884C235.842 117.243 236.282 117.602 236.72 117.961C237.999 119.008 237.887 121.34 236.72 122.412C235.36 123.66 233.634 123.529 232.268 122.412C231.029 121.399 229.792 120.385 228.553 119.372C227.821 118.773 227.089 118.175 226.357 117.575C226.183 117.433 226.002 117.296 225.835 117.147C225.807 117.123 226.404 117.551 225.864 117.184C225.466 116.913 225.047 116.699 224.617 116.482C224.31 116.328 224.894 116.616 224.899 116.603C224.901 116.601 224.484 116.457 224.515 116.467C224.321 116.404 224.125 116.348 223.927 116.3C223.795 116.267 223.007 116.149 223.545 116.203C224.061 116.255 223.285 116.187 223.147 116.18C222.891 116.169 222.636 116.174 222.379 116.182C221.893 116.195 221.407 116.212 220.921 116.227C218.938 116.289 216.954 116.352 214.971 116.413C212.872 116.479 210.772 116.544 208.674 116.611C207.396 116.651 206.106 116.731 204.827 116.688C200.733 116.547 196.653 115.361 193.167 113.194C191.327 112.051 189.732 110.622 188.167 109.144C185.454 106.582 182.736 104.026 180.029 101.458C179.475 100.932 179.004 100.325 178.511 99.7418C177.257 98.2613 176.003 96.7807 174.75 95.3001C172.546 92.6966 170.355 90.0804 168.137 87.4894C166.829 85.961 165.956 84.167 166.002 82.1085C166.055 79.6699 167.268 77.5107 169.126 75.9773C170.902 74.5118 172.97 73.7124 175.303 73.8584C177.844 74.0183 179.968 75.0016 181.921 76.5879C183.416 77.8003 184.7 79.2733 186.014 80.6745C187.399 82.1501 188.783 83.6256 190.168 85.1024C190.284 85.227 190.407 85.3466 190.518 85.4763C190.768 85.7696 190.714 85.4423 190.382 85.4146C190.474 85.4222 190.666 85.6022 190.751 85.6526C190.787 85.674 190.825 85.6954 190.861 85.7168C191.442 86.0542 192.029 86.384 192.611 86.7177C194.428 87.7563 196.244 88.795 198.06 89.8336C198.442 90.0514 198.822 90.2692 199.203 90.487C198.673 90.3435 198.145 90.2 197.615 90.0577C197.683 90.0577 197.752 90.0577 197.82 90.0577C196.913 90.5777 196.008 91.0964 195.102 91.6164C196.704 89.3212 198.964 87.9212 201.757 87.6178C202.512 87.536 203.28 87.5687 204.039 87.5687C205.901 87.5687 207.762 87.5687 209.624 87.5687C211.271 87.5687 212.847 89.0166 212.772 90.7162C212.695 92.4234 211.388 93.8662 209.624 93.8662Z" fill="#EC4A85"/>
<path d="M216.873 65.7428C216.923 65.7806 216.972 65.8108 217.028 65.8397C216.777 65.734 216.526 65.6282 216.276 65.5225C216.351 65.5527 216.422 65.5716 216.503 65.5829C216.223 65.5451 215.945 65.5074 215.665 65.4709C215.726 65.4746 215.78 65.4734 215.839 65.4671C215.56 65.5049 215.281 65.5426 215.002 65.5791C215.061 65.5678 215.114 65.554 215.171 65.5338C214.92 65.6396 214.669 65.7453 214.419 65.8511C214.474 65.8259 214.522 65.7995 214.574 65.7642C214.361 65.9279 214.15 66.0928 213.937 66.2565C213.986 66.2162 214.027 66.1772 214.069 66.1306C213.905 66.3433 213.74 66.5549 213.577 66.7676C213.614 66.7173 213.645 66.6682 213.674 66.6128C213.568 66.8633 213.462 67.1138 213.356 67.3644C213.387 67.2888 213.405 67.2183 213.417 67.1378C213.379 67.4173 213.341 67.6955 213.305 67.975C213.309 67.9145 213.307 67.8604 213.301 67.8012C213.339 68.0807 213.377 68.359 213.413 68.6385C213.402 68.5793 213.388 68.5264 213.368 68.4698C213.473 68.7203 213.579 68.9708 213.685 69.2214C213.66 69.166 213.633 69.1181 213.598 69.0665C213.762 69.2793 213.927 69.4908 214.09 69.7036C214.05 69.6545 214.011 69.6129 213.964 69.5714C214.177 69.735 214.389 69.9 214.601 70.0636C214.551 70.0259 214.502 69.9956 214.447 69.9667C214.697 70.0724 214.948 70.1782 215.198 70.284C215.123 70.2537 215.052 70.2349 214.972 70.2235C215.251 70.2613 215.529 70.2991 215.809 70.3356C215.748 70.3318 215.694 70.3331 215.635 70.3393C215.915 70.3016 216.193 70.2638 216.472 70.2273C216.413 70.2386 216.36 70.2525 216.304 70.2726C216.554 70.1669 216.805 70.0611 217.055 69.9554C217 69.9805 216.952 70.007 216.9 70.0422C217.113 69.8786 217.325 69.7136 217.537 69.55C217.488 69.5903 217.447 69.6293 217.405 69.6759C217.569 69.4631 217.734 69.2516 217.898 69.0388C217.86 69.0892 217.83 69.1383 217.801 69.1937C217.906 68.9431 218.012 68.6926 218.118 68.4421C218.088 68.5176 218.069 68.5881 218.057 68.6687C218.095 68.3892 218.133 68.111 218.169 67.8315C218.166 67.8919 218.167 67.946 218.173 68.0052C218.135 67.7257 218.098 67.4475 218.061 67.168C218.073 67.2271 218.086 67.28 218.107 67.3367C218.001 67.0861 217.895 66.8356 217.789 66.5851C217.814 66.6405 217.841 66.6883 217.876 66.7399C217.712 66.5272 217.548 66.3156 217.384 66.1029C217.424 66.152 217.463 66.1935 217.51 66.2351C217.817 66.5196 218.033 66.8583 218.161 67.2485C218.358 67.6237 218.448 68.0279 218.431 68.4609C218.431 69.2327 218.089 70.1555 217.51 70.6868C216.91 71.237 216.122 71.6462 215.284 71.6084C215.004 71.5706 214.726 71.5329 214.447 71.4964C213.913 71.3465 213.451 71.0771 213.058 70.6868C212.305 70.0208 211.898 68.9671 211.875 67.9775C211.851 66.9552 212.251 65.9644 212.952 65.2254C213.667 64.4712 214.614 64.1124 215.633 64.0457C216.009 64.0205 216.394 64.0772 216.758 64.1754C217.04 64.2509 217.366 64.397 217.622 64.5329C217.797 64.6261 217.934 64.7507 218.095 64.8754C218.519 65.2027 218.788 65.4633 219.08 65.9656C219.431 66.57 219.549 67.1138 219.593 67.8012C219.597 67.8604 219.6 67.9158 219.597 67.975C219.559 68.2545 219.522 68.5327 219.485 68.8122C219.481 68.8512 219.474 68.889 219.464 68.9268C219.368 69.2843 219.223 69.6419 219.01 69.9453C218.9 70.1039 218.649 70.469 218.433 70.6705C218.236 70.8543 217.933 71.101 217.7 71.2332C217.44 71.3805 217.124 71.5102 216.842 71.6034C216.786 71.6223 216.732 71.6361 216.674 71.6487C215.986 71.8023 215.459 71.8061 214.769 71.6449C214.579 71.6008 214.404 71.5089 214.224 71.4334C214.03 71.3516 213.855 71.3 213.693 71.1778C213.326 70.9802 213.032 70.7095 212.81 70.367C212.532 70.0636 212.344 69.7061 212.247 69.2969C212.116 68.8789 212.097 68.4597 212.191 68.0417C212.209 67.6225 212.334 67.2322 212.564 66.8721C212.998 66.1998 213.643 65.6081 214.445 65.4255C214.725 65.3878 215.003 65.35 215.283 65.3135C215.853 65.3148 216.382 65.4583 216.873 65.7428Z" fill="#EC4A85"/>
<path d="M174.814 32.5612C174.927 33.6553 175.041 34.7481 175.155 35.8422C175.233 36.5862 175.31 37.3303 175.388 38.0743C175.414 38.3274 175.441 38.5804 175.467 38.8348C175.51 39.2464 175.692 39.2968 175.437 38.4583C175.167 37.995 174.897 37.533 174.627 37.0697C175.099 37.6425 175.816 38.0794 176.39 38.5452C176.971 39.0173 177.553 39.4882 178.134 39.9603C177.112 39.6909 176.091 39.4202 175.072 39.1508C176.275 38.9556 177.478 38.7592 178.681 38.5641C179.712 38.3966 180.577 38.4722 181.424 39.1268C182.228 39.7475 182.618 40.586 182.665 41.5982C182.721 42.8157 182.778 44.0331 182.833 45.2505C182.526 44.509 182.219 43.7662 181.912 43.0246C182.861 43.7951 183.812 44.5669 184.761 45.3374C183.74 45.068 182.719 44.7973 181.699 44.5279C182.903 44.3327 184.105 44.1363 185.308 43.9412C186.34 43.7737 187.204 43.8493 188.052 44.504C188.855 45.1246 189.245 45.9631 189.292 46.9753C189.347 48.1928 189.404 49.4115 189.459 50.6289C189.152 49.8874 188.845 49.1446 188.538 48.403C189.488 49.1735 190.439 49.9453 191.391 50.7158C190.37 50.4463 189.349 50.1757 188.329 49.9062C189.531 49.7111 190.735 49.5147 191.937 49.3196C192.968 49.1521 193.833 49.2276 194.68 49.8823C195.484 50.503 195.874 51.3415 195.92 52.3537C195.977 53.5711 196.034 54.7886 196.089 56.006C195.782 55.2645 195.475 54.5217 195.168 53.7801C196.487 54.8515 197.806 55.9217 199.126 56.993C199.929 57.6452 200.271 59.0968 199.935 60.0549C199.705 60.7121 199.514 61.3806 199.37 62.0617C199.326 62.2694 199.294 62.4772 199.253 62.6849C199.156 63.1784 199.333 62.4872 199.274 62.4747C199.266 62.4734 199.172 63.6707 199.17 63.7324C199.141 64.4311 199.158 65.1324 199.224 65.8298C199.237 65.9671 199.266 66.1106 199.269 66.2466C199.245 65.4383 199.223 65.8966 199.263 66.137C199.327 66.5172 199.405 66.8937 199.498 67.2676C199.665 67.9361 200.02 68.6046 200.143 69.2719C200.022 68.616 199.997 68.937 200.117 69.2014C200.19 69.3625 200.266 69.5224 200.344 69.6798C200.526 70.0437 200.722 70.3999 200.931 70.7487C201.102 71.0345 201.285 71.314 201.475 71.5872C201.556 71.703 201.64 71.8176 201.723 71.9334C202.14 72.5125 201.384 71.5418 201.69 71.8868C202.196 72.4596 202.692 73.0249 203.259 73.5424C203.526 73.7853 203.834 73.9956 204.091 74.2487C203.557 73.7224 203.832 74.0472 204.023 74.1857C204.16 74.2839 204.298 74.3808 204.437 74.474C205.043 74.8807 205.678 75.2432 206.335 75.5592C206.453 75.6159 206.573 75.67 206.691 75.7254C207.303 76.01 206.151 75.5215 206.569 75.6738C206.874 75.7846 207.174 75.903 207.483 76.0037C208.124 76.2114 208.78 76.3776 209.442 76.4997C209.599 76.5287 209.757 76.5513 209.914 76.579C210.358 76.6558 209.073 76.4972 209.742 76.5526C210.059 76.579 210.375 76.6118 210.693 76.6256C211.391 76.6571 212.09 76.642 212.786 76.579C212.912 76.5677 213.038 76.5538 213.165 76.54C213.829 76.4708 212.545 76.6445 212.987 76.5614C213.299 76.5035 213.612 76.4519 213.923 76.3839C214.575 76.2391 215.217 76.0515 215.845 75.8236C215.995 75.7695 216.142 75.7078 216.292 75.6524C216.706 75.4988 215.559 75.9949 216.159 75.7078C216.448 75.5693 216.739 75.4359 217.023 75.2848C217.649 74.9537 218.251 74.5798 218.825 74.1656C218.853 74.1454 218.88 74.1253 218.908 74.1051C219.178 73.9037 219.128 73.9427 218.761 74.2235C218.848 74.2247 219.086 73.9578 219.159 73.8949C219.397 73.6922 219.627 73.4832 219.852 73.2666C220.105 73.0237 220.35 72.7719 220.585 72.5113C220.727 72.3539 220.867 72.1927 221.004 72.0291C221.172 71.8289 221.405 71.3215 220.984 72.0719C221.271 71.5582 221.677 71.0987 221.978 70.5863C222.289 70.0562 222.558 69.5073 222.812 68.9483C222.989 68.5606 222.509 69.7214 222.727 69.1397C222.767 69.0314 222.808 68.9244 222.849 68.8161C222.947 68.5467 223.038 68.2748 223.119 68.0003C223.301 67.4011 223.444 66.7904 223.55 66.1723C223.569 66.064 223.578 65.9444 223.604 65.8361C223.379 66.7678 223.55 66.2654 223.578 65.9998C223.607 65.7191 223.628 65.437 223.642 65.155C223.67 64.5923 223.667 64.0282 223.633 63.4655C223.617 63.1847 223.587 62.9052 223.56 62.6245C223.498 61.9824 223.697 63.4264 223.58 62.7919C223.56 62.6811 223.544 62.5691 223.524 62.4583C223.413 61.8477 223.265 61.2434 223.082 60.6517C222.997 60.381 222.907 60.1141 222.808 59.8484C222.769 59.7427 222.727 59.6369 222.686 59.5312C222.464 58.9319 223.014 60.2337 222.738 59.6558C222.492 59.1384 222.242 58.6285 221.951 58.1349C221.655 57.6351 221.317 57.1731 220.987 56.6972C221.567 57.5344 220.984 56.711 220.817 56.5184C220.584 56.2515 220.342 55.9922 220.092 55.7416C219.859 55.5087 219.619 55.2833 219.373 55.0668C219.259 54.9673 219.145 54.8691 219.029 54.7722C218.921 54.6828 218.812 54.5947 218.702 54.5078C218.789 54.5758 218.874 54.6438 218.961 54.713C218.689 54.4021 218.149 54.144 217.795 53.9287C217.402 53.6907 216.997 53.4704 216.585 53.2677C216.451 53.201 216.313 53.1393 216.177 53.0751C215.595 52.7994 216.767 53.2954 215.996 53.0059C215.629 52.8674 215.255 52.7427 214.877 52.6332C214.469 52.5149 214.056 52.4129 213.641 52.3298C213.502 52.3021 213.364 52.2756 213.225 52.2517C213.087 52.2278 212.947 52.2051 212.808 52.185C213.297 52.2479 213.367 52.2593 213.017 52.219C212.246 52.1636 211.484 52.1183 210.708 52.1523C210.533 52.1598 210.36 52.1711 210.185 52.185C209.959 52.2026 209.169 52.3575 210.083 52.1762C209.705 52.2505 209.324 52.2983 208.947 52.3814C208.154 52.5551 207.395 52.8069 206.632 53.0814C205.965 53.3219 207.117 52.8497 206.701 53.0499C206.478 53.1569 206.252 53.2564 206.03 53.3684C205.661 53.5548 205.301 53.7575 204.949 53.974C203.661 54.7672 202.217 54.3605 201.134 53.4817C198.382 51.2483 195.63 49.0149 192.877 46.7814C188.509 43.2362 184.14 39.6909 179.771 36.1468C179.041 35.5538 178.311 34.9609 177.58 34.3691C177.377 34.2042 177.173 34.0393 176.97 33.8744C176.652 33.6163 176.514 33.7296 177.227 34.1035C177.757 34.247 178.286 34.3906 178.816 34.5328C178.441 34.4963 178.054 34.5756 177.68 34.6146C176.926 34.6927 176.172 34.772 175.418 34.8501C174.669 34.9281 173.92 35.0062 173.172 35.0842C172.913 35.1107 172.652 35.1384 172.393 35.1648C171.291 35.2794 173.349 35.2454 173.951 34.5026C174.221 34.0393 174.491 33.5772 174.761 33.1139C174.778 32.9326 174.796 32.7463 174.814 32.5612C174.725 34.203 173.429 35.788 171.666 35.7087C170.037 35.6357 168.424 34.3226 168.519 32.5612C168.572 31.5667 168.852 30.6677 169.589 29.9463C170.296 29.2526 171.127 29.0185 172.075 28.9077C172.211 28.8913 172.347 28.8787 172.483 28.8649C173.255 28.7843 174.025 28.7037 174.797 28.6244C175.695 28.5312 176.594 28.4368 177.491 28.3437C178.237 28.2656 178.9 28.1473 179.652 28.3537C180.56 28.603 181.354 29.3722 182.088 29.9677C182.948 30.6652 183.808 31.364 184.668 32.0614C190.137 36.4993 195.606 40.9373 201.075 45.3752C202.578 46.5951 204.08 47.8138 205.583 49.0338C204.312 48.8701 203.04 48.7052 201.768 48.5415C208.18 44.5959 216.7 45.0755 222.642 49.667C227.397 53.3407 230.26 59.19 229.929 65.2432C229.575 71.7181 225.854 77.8242 220.029 80.8105C214.086 83.8559 206.649 83.6268 201.094 79.797C197.659 77.4288 195.115 74.1127 193.781 70.1544C192.519 66.4039 192.555 62.1146 193.864 58.383C194.134 59.404 194.405 60.425 194.674 61.4448C193.406 60.4162 192.077 59.4367 190.859 58.349C189.799 57.401 189.797 56.0853 189.736 54.7923C189.699 53.9803 189.661 53.167 189.623 52.355C190.951 53.3672 192.279 54.3781 193.608 55.3904C192.804 55.5213 192.002 55.651 191.199 55.7819C190.822 55.8436 190.444 55.9078 190.066 55.9657C189.199 56.0979 188.364 56.1206 187.575 55.6598C187.295 55.4961 187.048 55.2557 186.793 55.0504C186.036 54.4411 185.285 53.828 184.53 53.2161C183.832 52.6496 183.347 51.9999 183.219 51.0481C183.164 50.6503 183.146 50.2625 183.127 49.8609C183.083 48.8991 183.039 47.9372 182.994 46.9753C184.323 47.9876 185.651 48.9985 186.979 50.0107C186.176 50.1417 185.373 50.2713 184.569 50.4023C184.192 50.464 183.814 50.5282 183.435 50.5861C182.566 50.7183 181.733 50.7409 180.944 50.2802C180.664 50.1165 180.417 49.876 180.162 49.6708C179.406 49.0627 178.655 48.4483 177.902 47.8365C177.204 47.2699 176.718 46.619 176.591 45.6685C176.538 45.2707 176.518 44.8829 176.499 44.4825C176.455 43.5207 176.41 42.5601 176.366 41.5982C177.694 42.6104 179.022 43.6214 180.351 44.6336C179.253 44.8124 178.154 44.9912 177.056 45.1687C176.702 45.2266 176.198 45.3449 175.905 45.3324C174.967 45.2908 174.271 44.8867 173.558 44.3126C173.111 43.9525 172.667 43.5899 172.223 43.2286C171.704 42.8068 171.184 42.3863 170.665 41.9646C169.766 41.2356 169.328 40.2738 169.199 39.1105C169.084 38.0844 168.984 37.0558 168.877 36.0285C168.757 34.8727 168.637 33.717 168.516 32.5612C168.345 30.9183 170.086 29.3433 171.664 29.4138C173.517 29.4956 174.63 30.8012 174.814 32.5612Z" fill="#EC4A85"/>
<path d="M233.389 125.097C236.464 127.964 239.537 130.831 242.611 133.698C242.853 133.923 243.096 134.15 243.338 134.375C243.398 134.43 243.464 134.484 243.519 134.545C243.748 134.792 242.902 134.18 243.365 134.423C243.825 134.664 243.122 134.314 243.088 134.318C243.1 134.317 243.382 134.38 243.421 134.401C243.003 134.17 242.738 134.343 243.092 134.325C242.114 134.377 242.57 134.444 242.76 134.366C243.243 134.168 242.498 134.501 242.49 134.507C242.487 134.511 242.761 134.332 242.791 134.332C242.453 134.341 242.31 134.774 242.565 134.471C242.604 134.423 242.649 134.38 242.692 134.335C243.432 133.549 244.165 132.755 244.901 131.965C248.111 128.524 251.32 125.082 254.529 121.642C258.152 117.755 261.777 113.87 265.4 109.983C266.634 108.66 267.868 107.337 269.103 106.014C269.452 105.64 269.8 105.266 270.148 104.892C270.24 104.794 270.329 104.691 270.425 104.595C270.66 104.36 270.25 104.639 270.246 104.857C270.246 104.828 270.429 104.55 270.423 104.553C270.416 104.561 270.086 105.305 270.284 104.82C270.362 104.63 270.295 104.176 270.242 105.153C270.261 104.801 270.087 105.058 270.319 105.483C270.298 105.444 270.235 105.164 270.237 105.151C270.232 105.19 270.588 105.884 270.344 105.432C270.094 104.968 270.81 105.865 270.388 105.51C270.212 105.362 270.05 105.194 269.881 105.037C268.983 104.2 268.084 103.362 267.187 102.525C265.942 101.364 264.696 100.204 263.453 99.0429C262.523 98.1767 261.594 97.3105 260.665 96.4443C260.542 96.3298 260.408 96.219 260.292 96.0968C260.269 96.0717 260.231 96.0503 260.212 96.0213C260.14 95.9143 255.531 96.2164 260.566 96.2844C260.493 96.2832 259.935 95.9256 260.479 96.2001C260.909 96.4179 260.59 96.2731 260.446 96.229C260.066 96.1119 261.172 96.2882 260.776 96.2882C260.379 96.2882 261.487 96.1119 261.107 96.229C260.962 96.2731 260.649 96.4191 261.077 96.1988C261.535 95.9634 261.181 96.1774 261.067 96.2328C260.733 96.3952 261.506 95.7657 261.287 96.0729C261.262 96.1082 261.206 96.156 261.172 96.19C259.984 97.4301 258.828 98.7042 257.656 99.9607C255.325 102.461 252.992 104.963 250.66 107.463C247.068 111.315 243.476 115.167 239.884 119.019C237.899 121.149 235.912 123.278 233.927 125.408C233.732 125.617 233.516 125.954 233.275 126.108C233.577 125.915 233.611 125.588 233.493 125.828C233.436 125.941 233.224 126.299 233.456 125.84C233.674 125.41 233.529 125.729 233.485 125.873C233.368 126.253 233.544 125.147 233.544 125.543C233.544 125.94 233.368 124.832 233.485 125.212C233.529 125.357 233.675 125.67 233.455 125.242C233.219 124.784 233.433 125.138 233.489 125.252C233.661 125.614 232.951 124.657 233.389 125.097C234.553 126.266 234.643 128.397 233.389 129.549C232.135 130.7 230.179 130.796 228.938 129.549C227.541 128.147 227.042 126.296 227.38 124.37C227.574 123.266 228.201 122.335 228.944 121.527C229.779 120.617 230.628 119.72 231.471 118.818C232.09 118.154 232.708 117.491 233.328 116.827C236.626 113.291 239.925 109.753 243.223 106.217C246.342 102.873 249.459 99.5288 252.577 96.1862C253.314 95.3956 254.052 94.6049 254.788 93.8143C255.612 92.9305 256.393 91.9397 257.353 91.1981C258.768 90.1041 260.629 89.6987 262.365 90.2262C263.342 90.5221 264.135 91.0836 264.871 91.7697C268.024 94.7094 271.176 97.6492 274.33 100.59C274.5 100.749 274.675 100.902 274.841 101.066C276.217 102.431 276.728 104.276 276.411 106.162C276.214 107.337 275.561 108.311 274.766 109.165C273.949 110.041 273.13 110.919 272.313 111.795C268.895 115.461 265.476 119.127 262.058 122.794C258.408 126.708 254.758 130.621 251.108 134.535C249.999 135.725 248.89 136.913 247.782 138.103C247.547 138.356 247.314 138.611 247.074 138.862C245.605 140.399 243.285 141.045 241.254 140.334C240.08 139.922 239.231 139.15 238.351 138.329C237.526 137.561 236.703 136.792 235.878 136.024C233.934 134.211 231.989 132.398 230.045 130.584C229.677 130.24 229.308 129.897 228.939 129.552C227.731 128.426 227.716 126.223 228.939 125.1C230.231 123.912 232.103 123.896 233.389 125.097Z" fill="#EC4A85"/>
<path d="M209.624 87.5709C210.965 87.5709 212.305 87.5709 213.645 87.5709C214.272 87.5709 214.899 87.581 215.525 87.552C215.904 87.5344 216.439 87.5797 216.795 87.4475C216.727 87.4727 216.058 87.5697 216.647 87.4639C216.875 87.4236 217.104 87.3871 217.33 87.3405C217.8 87.2461 218.278 87.1479 218.732 86.9943C221.37 86.0992 223.954 84.99 226.555 83.9904C227.373 83.6756 228.192 83.3571 229.012 83.0474C232.582 81.6965 236.417 81.4447 240.167 82.0264C243.697 82.5753 247.123 84.1515 249.852 86.4529C250.585 87.0711 251.236 87.795 251.911 88.4736C254.03 90.6025 256.147 92.7302 258.266 94.8592C259.429 96.0275 259.521 98.159 258.266 99.3109C257.012 100.462 255.056 100.557 253.814 99.3109C251.984 97.4728 250.155 95.6334 248.324 93.7953C247.511 92.9782 246.709 92.1486 245.884 91.3441C245.807 91.2685 245.732 91.198 245.651 91.125C245.576 91.0558 245.28 90.8682 245.247 90.7801C245.267 90.8317 245.863 91.2232 245.398 90.8997C245.044 90.6517 244.691 90.4074 244.322 90.182C243.677 89.788 243.006 89.4468 242.32 89.1308C241.617 88.8072 242.97 89.3587 242.241 89.1018C242.1 89.0527 241.961 88.9961 241.82 88.9445C241.4 88.7934 240.972 88.6587 240.541 88.5391C239.812 88.3376 239.016 88.1085 238.258 88.0644C239.125 88.1148 238.324 88.0833 238.159 88.0682C238.003 88.0544 237.846 88.0418 237.689 88.0317C237.22 88.0015 236.749 87.9902 236.279 87.9952C235.89 88.0002 235.501 88.0179 235.115 88.0468C234.882 88.0644 234.649 88.0896 234.417 88.1135C233.819 88.1727 234.484 88.0858 234.558 88.0934C234.182 88.0531 233.657 88.2495 233.289 88.3326C232.867 88.427 232.448 88.5366 232.034 88.6599C230.876 89.0062 229.755 89.4758 228.627 89.9089C225.962 90.9324 223.297 91.9547 220.631 92.9782C218.603 93.7576 216.273 93.8658 214.119 93.8658C212.621 93.8658 211.122 93.8658 209.624 93.8658C207.977 93.8658 206.401 92.418 206.477 90.7184C206.552 89.0125 207.859 87.5709 209.624 87.5709Z" fill="#EC4A85"/>
</g>
</g>
</svg>
