<svg width="41" height="43" viewBox="0 0 41 43" fill="none" xmlns="http://www.w3.org/2000/svg">
<path opacity="0.6" d="M37.304 3.698L33.6015 0H5.00743V12.0995H8.31922V3.30769H32.2767L34.9858 6.03985L37.7147 8.73892V39.6923H8.31922V31.9192H5.00743V43H41V7.36292L37.304 3.698ZM7.95493 21.7977C7.99411 21.19 7.90403 20.581 7.6906 20.0106C7.47718 19.4402 7.14525 18.9214 6.71665 18.4883C6.28805 18.0553 5.7725 17.7177 5.20392 17.498C4.63533 17.2782 4.0266 17.1812 3.41777 17.2132H0V26.3755H3.41777C4.02601 26.4075 4.63414 26.3107 5.20224 26.0913C5.77034 25.8719 6.28554 25.535 6.71403 25.1026C7.14252 24.6703 7.4746 24.1523 7.68847 23.5828C7.90233 23.0132 7.99314 22.4048 7.95493 21.7977ZM3.40452 24.3975H2.04669V19.1912H3.40452C4.88158 19.1912 5.842 20.2166 5.842 21.7977C5.842 23.3788 4.88158 24.3975 3.40452 24.3975ZM18.1288 21.7977C18.1261 20.8654 17.8469 19.9547 17.3264 19.1808C16.8059 18.4069 16.0674 17.8044 15.2042 17.4494C14.3411 17.0944 13.3919 17.0029 12.4767 17.1864C11.5615 17.3699 10.7212 17.8202 10.0621 18.4803C9.40294 19.1405 8.95447 19.981 8.77332 20.8956C8.59217 21.8102 8.68646 22.7579 9.04429 23.619C9.40212 24.4801 10.0074 25.216 10.7838 25.7337C11.5601 26.2514 12.4727 26.5277 13.4061 26.5277C14.0307 26.5394 14.6511 26.425 15.2303 26.1913C15.8095 25.9576 16.3354 25.6094 16.7764 25.1676C17.2175 24.7258 17.5646 24.1996 17.797 23.6205C18.0294 23.0414 18.1423 22.4214 18.1288 21.7977ZM10.7898 21.7977C10.7964 21.2823 10.9553 20.7804 11.2468 20.3551C11.5382 19.9297 11.949 19.5999 12.4277 19.4072C12.9063 19.2145 13.4312 19.1675 13.9366 19.272C14.4419 19.3765 14.905 19.628 15.2675 19.9947C15.6301 20.3614 15.876 20.8271 15.9743 21.333C16.0726 21.839 16.0189 22.3627 15.82 22.8382C15.621 23.3138 15.2857 23.72 14.8562 24.0057C14.4267 24.2913 13.9222 24.4438 13.4061 24.4438C12.7092 24.4351 12.0438 24.1525 11.5541 23.6572C11.0644 23.1619 10.7898 22.4938 10.7898 21.7977ZM23.5535 19.1118C24.2808 19.1076 24.9856 19.3634 25.5406 19.8329L25.6796 19.952V17.5638L25.6532 17.5308C24.9982 17.2234 24.2838 17.0631 23.5601 17.0611C22.3041 17.0611 21.0995 17.5594 20.2113 18.4465C19.3232 19.3335 18.8242 20.5366 18.8242 21.7911C18.8242 23.0456 19.3232 24.2486 20.2113 25.1357C21.0995 26.0227 22.3041 26.5211 23.5601 26.5211C24.2841 26.5221 24.9992 26.3617 25.6532 26.0514H25.6995V23.6698L25.5604 23.7955C25.0004 24.2539 24.2974 24.502 23.5733 24.4968C22.8841 24.4626 22.2344 24.165 21.7586 23.6657C21.2829 23.1664 21.0176 22.5035 21.0176 21.8142C21.0176 21.125 21.2829 20.4621 21.7586 19.9628C22.2344 19.4634 22.8841 19.1659 23.5733 19.1317L23.5535 19.1118Z" fill="black"/>
</svg>
