<svg width="28" height="21" viewBox="0 0 28 21" fill="none" xmlns="http://www.w3.org/2000/svg">
<path opacity="0.6" d="M25.375 21H2.625C1.17523 21 0 19.8248 0 18.375V2.625C0 1.17523 1.17523 0 2.625 0H25.375C26.8248 0 28 1.17523 28 2.625V18.375C28 19.8248 26.8248 21 25.375 21ZM6.125 3.0625C4.43363 3.0625 3.0625 4.43363 3.0625 6.125C3.0625 7.81637 4.43363 9.1875 6.125 9.1875C7.81637 9.1875 9.1875 7.81637 9.1875 6.125C9.1875 4.43363 7.81637 3.0625 6.125 3.0625ZM3.5 17.5H24.5V11.375L19.714 6.58902C19.4578 6.33276 19.0422 6.33276 18.7859 6.58902L11.375 14L8.33902 10.964C8.08276 10.7078 7.66724 10.7078 7.41092 10.964L3.5 14.875V17.5Z" fill="black"/>
</svg>
